<?xml version="1.0" encoding="UTF-8" standalone="no"?>
<!DOCTYPE svg PUBLIC "-//W3C//DTD SVG 1.1//EN" "http://www.w3.org/Graphics/SVG/1.1/DTD/svg11.dtd">
<svg width="100%" height="100%" viewBox="0 0 59 59" version="1.1" xmlns="http://www.w3.org/2000/svg" xmlns:xlink="http://www.w3.org/1999/xlink" xml:space="preserve" xmlns:serif="http://www.serif.com/" style="fill-rule:evenodd;clip-rule:evenodd;stroke-linejoin:round;stroke-miterlimit:1.41421;">
    <g transform="matrix(0.930717,0,0,0.973029,1.93352e-14,0.567498)">
        <g>
            <path d="M38.188,46.05C43.791,38.82 43.241,28.444 36.61,22.034C31.864,17.447 19.661,14.093 0,11.973C2.788,31.55 6.555,43.632 11.301,48.219C17.592,54.3 27.265,54.788 34.249,49.832C36.758,53.42 39.235,57.223 39.627,57.721C40.991,59.461 46.356,55.053 44.485,52.694C44.145,52.265 41.198,49.179 38.188,46.05ZM38.188,46.05C37.778,46.584 37.333,47.099 36.855,47.594C36.042,48.435 35.169,49.181 34.249,49.832C32.511,47.339 30.758,44.952 29.669,43.826C26.303,40.343 22.832,36.958 19.259,33.684C18.683,33.152 18.29,32.466 18.169,31.77C18.048,31.074 18.204,30.426 18.608,29.969C19.014,29.514 19.628,29.287 20.321,29.339C21.015,29.392 21.73,29.717 22.308,30.246C25.988,33.624 29.572,37.114 33.043,40.708C34.189,41.894 36.224,44.002 38.188,46.05Z" style="fill:rgb(163,203,56);"/>
            <g>
                <path d="M60.715,5.7L56.609,1.71C54.788,0.686 52.736,0 50.456,0C45.668,0 41.564,2.85 39.627,6.839C37.689,2.733 33.585,0 28.798,0C22.186,0 16.829,5.358 16.829,11.969C16.829,15.389 18.196,18.355 20.476,20.518L39.627,39.897L59.121,20.176C61.168,18.121 62.425,15.161 62.425,11.969C62.425,9.689 61.738,7.526 60.715,5.7Z" style="fill:rgb(255,104,58);fill-rule:nonzero;"/>
                <path d="M56.609,1.71L39.627,18.808L31.419,10.601C30.279,9.461 28.456,9.461 27.43,10.601C26.29,11.741 26.29,13.563 27.43,14.591L39.627,26.788L60.715,5.7C59.674,4.07 58.268,2.704 56.609,1.71Z" style="fill:white;fill-rule:nonzero;"/>
            </g>
        </g>
    </g>
</svg>
