<?xml version="1.0" encoding="UTF-8" standalone="no"?><!-- Generator: Gravit.io --><svg xmlns="http://www.w3.org/2000/svg" xmlns:xlink="http://www.w3.org/1999/xlink" style="isolation:isolate" viewBox="30 30 267.066 58.118" width="267.066pt" height="58.118pt"><g><text transform="matrix(1,0,0,1,98.066,72.559)" style="font-family:'IBM Plex Sans';font-weight:700;font-size:36px;font-style:normal;fill:white;stroke:none;color:white;">HealthZone</text><g><path d=" M 68.188 76.05 L 68.188 76.05 C 73.791 68.82 73.241 58.444 66.61 52.034 Q 59.491 45.153 30 41.973 Q 34.182 71.338 41.301 78.219 C 47.592 84.3 57.265 84.788 64.249 79.832 L 64.249 79.832 C 66.758 83.42 69.235 87.223 69.627 87.721 C 70.991 89.461 76.356 85.053 74.485 82.694 C 74.145 82.265 71.198 79.179 68.188 76.05 Z  M 68.188 76.05 L 68.188 76.05 C 67.778 76.584 67.333 77.099 66.855 77.594 C 66.042 78.435 65.169 79.181 64.249 79.832 L 64.249 79.832 C 62.511 77.339 60.758 74.952 59.669 73.826 C 56.303 70.343 52.832 66.958 49.259 63.684 C 48.683 63.152 48.29 62.466 48.169 61.77 C 48.048 61.074 48.204 60.426 48.608 59.969 C 49.014 59.514 49.628 59.287 50.321 59.339 C 51.015 59.392 51.73 59.717 52.308 60.246 C 55.988 63.624 59.572 67.114 63.043 70.708 C 64.189 71.894 66.224 74.002 68.188 76.05 Z " fill-rule="evenodd" fill="rgb(163,203,56)"/><g><path d=" M 90.715 35.7 L 86.609 31.71 C 84.788 30.686 82.736 30 80.456 30 C 75.668 30 71.564 32.85 69.627 36.839 C 67.689 32.733 63.585 30 58.798 30 C 52.186 30 46.829 35.358 46.829 41.969 C 46.829 45.389 48.196 48.355 50.476 50.518 L 69.627 69.897 L 89.121 50.176 C 91.168 48.121 92.425 45.161 92.425 41.969 C 92.425 39.689 91.738 37.526 90.715 35.7 Z " fill="rgb(255,104,58)"/><path d=" M 86.609 31.71 L 69.627 48.808 L 61.419 40.601 C 60.279 39.461 58.456 39.461 57.43 40.601 C 56.29 41.741 56.29 43.563 57.43 44.591 L 69.627 56.788 L 90.715 35.7 C 89.674 34.07 88.268 32.704 86.609 31.71 Z " fill="rgb(255,255,255)"/></g></g></g></svg>